# xmcd
# 
# Track frame offsets:
#     150
#     18000
#     35720
#     52185
#     64635
#     81615
#     96437
#     110662
#     126042
#     137690
#     148232
#     163645
# 
# Disc length: 2397
# 
# Revision: 0
# Processed by: cddbd v1.5.2PL0 Copyright (c) Steve Scherf et al.
# Submitted via: fre:ac v1.0.27
# 
DISCID=b1095b0c
DTITLE=João Pimenta - Rosa Azul
DYEAR=2002
DGENRE=Folk
TTITLE0=Asas de Setembro
TTITLE1=Rio Cricaré
TTITLE2=Êxodo
TTITLE3=Rosa Azul
TTITLE4=Folha Seca
TTITLE5=Me ensina a cozinhar
TTITLE6=Nóis é jeca mais jóia
TTITLE7=Cantiga de Lavrador
TTITLE8=Lembrando de Você
TTITLE9=Vento Ligeiro
TTITLE10=Cheiro de Povo Brasileiro
TTITLE11=Milagre
EXTD=
EXTT0=
EXTT1=
EXTT2=
EXTT3=
EXTT4=
EXTT5=
EXTT6=
EXTT7=
EXTT8=
EXTT9=
EXTT10=
EXTT11=
PLAYORDER=
